<svg width="22" height="22" viewBox="0 0 22 22" fill="none" xmlns="http://www.w3.org/2000/svg">
<path d="M11 0C4.93078 0 0 4.82502 0 10.7641C0 16.1554 4.06377 20.6173 9.35645 21.3953L9.93066 21.4803V12.9983H7.33203V11.2763H9.93066V8.98948C9.93066 7.5813 10.276 6.65386 10.8477 6.07198C11.4193 5.49011 12.264 5.19664 13.4395 5.19664C14.3794 5.19664 14.745 5.25237 15.0928 5.29411V6.70364H13.8691C13.1748 6.70364 12.6052 7.0827 12.3096 7.58759C12.0139 8.09248 11.9219 8.69531 11.9219 9.30961V11.2753H14.9834L14.7109 12.9973H11.9219V21.4937L12.4893 21.4182C17.8572 20.7058 22 16.2081 22 10.7641C22 4.82502 17.0692 0 11 0ZM11 0.978551C16.5288 0.978551 21 5.35386 21 10.7641C21 15.5246 17.5179 19.4398 12.9219 20.3212V13.9759H15.5684L16.1494 10.2968H12.9219V9.30961C12.9219 8.802 13.0168 8.34718 13.1768 8.074C13.3367 7.80082 13.4909 7.6822 13.8691 7.6822H16.0928V4.40826L15.6592 4.35092C15.3593 4.31121 14.6746 4.21809 13.4395 4.21809C12.0879 4.21809 10.9278 4.57837 10.127 5.3935C9.32612 6.20862 8.93066 7.42237 8.93066 8.98948V10.2977H6.33203V13.9768H8.93066V20.2906C4.4085 19.3532 1 15.4731 1 10.7641C1 5.35386 5.47122 0.978551 11 0.978551Z" fill="white"/>
</svg>
