<svg width="22" height="22" viewBox="0 0 22 22" fill="none" xmlns="http://www.w3.org/2000/svg">
<path d="M6.5 0C2.91624 0 0 2.85369 0 6.36058V15.1675C0 18.6744 2.91624 21.5281 6.5 21.5281H15.5C19.0838 21.5281 22 18.6744 22 15.1675V6.36058C22 2.85369 19.0838 0 15.5 0H6.5ZM6.5 0.978551H15.5C18.5432 0.978551 21 3.38261 21 6.36058V15.1675C21 18.1455 18.5432 20.5496 15.5 20.5496H6.5C3.45676 20.5496 1 18.1455 1 15.1675V6.36058C1 3.38261 3.45676 0.978551 6.5 0.978551ZM17 3.9142C16.7348 3.9142 16.4804 4.0173 16.2929 4.20081C16.1054 4.38433 16 4.63322 16 4.89275C16 5.15228 16.1054 5.40118 16.2929 5.58469C16.4804 5.76821 16.7348 5.8713 17 5.8713C17.2652 5.8713 17.5196 5.76821 17.7071 5.58469C17.8946 5.40118 18 5.15228 18 4.89275C18 4.63322 17.8946 4.38433 17.7071 4.20081C17.5196 4.0173 17.2652 3.9142 17 3.9142ZM11 5.38203C7.96836 5.38203 5.5 7.79744 5.5 10.7641C5.5 13.7307 7.96836 16.1461 11 16.1461C14.0316 16.1461 16.5 13.7307 16.5 10.7641C16.5 7.79744 14.0316 5.38203 11 5.38203ZM11 6.36058C13.4912 6.36058 15.5 8.32629 15.5 10.7641C15.5 13.2018 13.4912 15.1675 11 15.1675C8.5088 15.1675 6.5 13.2018 6.5 10.7641C6.5 8.32629 8.5088 6.36058 11 6.36058Z" fill="white"/>
</svg>
