<svg width="188" height="55" viewBox="0 0 188 55" fill="none" xmlns="http://www.w3.org/2000/svg">
<path d="M0.63 31.3C0.63 30.736 0.798 30.25 1.134 29.842C1.47 29.422 1.932 29.098 2.52 28.87C3.108 28.63 3.786 28.51 4.554 28.51C5.034 28.51 5.532 28.552 6.048 28.636C6.564 28.72 7.026 28.834 7.434 28.978V28.096C7.434 27.232 7.182 26.542 6.678 26.026C6.186 25.51 5.502 25.252 4.626 25.252C4.158 25.252 3.672 25.348 3.168 25.54C2.664 25.732 2.148 26.008 1.62 26.368L1.242 25.72C1.854 25.312 2.442 25.006 3.006 24.802C3.582 24.586 4.152 24.478 4.716 24.478C5.832 24.478 6.714 24.808 7.362 25.468C8.01 26.128 8.334 27.028 8.334 28.168V32.812C8.334 32.956 8.364 33.064 8.424 33.136C8.496 33.208 8.598 33.25 8.73 33.262V34C8.622 34.012 8.532 34.018 8.46 34.018C8.388 34.018 8.328 34.018 8.28 34.018C8.052 33.982 7.872 33.886 7.74 33.73C7.62 33.574 7.554 33.4 7.542 33.208V32.47C7.11 33.01 6.552 33.43 5.868 33.73C5.196 34.03 4.488 34.18 3.744 34.18C3.156 34.18 2.622 34.054 2.142 33.802C1.674 33.55 1.302 33.208 1.026 32.776C0.762 32.332 0.63 31.84 0.63 31.3ZM7.074 32.074C7.194 31.918 7.284 31.768 7.344 31.624C7.404 31.48 7.434 31.348 7.434 31.228V29.68C7.002 29.512 6.552 29.386 6.084 29.302C5.616 29.218 5.136 29.176 4.644 29.176C3.708 29.176 2.946 29.362 2.358 29.734C1.782 30.106 1.494 30.61 1.494 31.246C1.494 31.642 1.596 32.008 1.8 32.344C2.004 32.68 2.286 32.95 2.646 33.154C3.018 33.358 3.444 33.46 3.924 33.46C4.596 33.46 5.214 33.334 5.778 33.082C6.354 32.818 6.786 32.482 7.074 32.074ZM18.722 34H17.822V28.78C17.822 27.58 17.648 26.704 17.3 26.152C16.964 25.588 16.424 25.306 15.68 25.306C15.152 25.306 14.63 25.432 14.114 25.684C13.61 25.936 13.166 26.284 12.782 26.728C12.41 27.16 12.14 27.652 11.972 28.204V34H11.072V24.64H11.918V26.872C12.17 26.392 12.506 25.978 12.926 25.63C13.346 25.27 13.814 24.988 14.33 24.784C14.846 24.58 15.38 24.478 15.932 24.478C16.448 24.478 16.88 24.574 17.228 24.766C17.588 24.946 17.876 25.21 18.092 25.558C18.32 25.906 18.482 26.338 18.578 26.854C18.674 27.37 18.722 27.958 18.722 28.618V34ZM25.5312 33.55C25.4712 33.574 25.3512 33.634 25.1712 33.73C24.9912 33.826 24.7632 33.916 24.4872 34C24.2112 34.072 23.9052 34.108 23.5692 34.108C23.2452 34.108 22.9392 34.048 22.6512 33.928C22.3752 33.796 22.1532 33.604 21.9852 33.352C21.8172 33.1 21.7332 32.794 21.7332 32.434V25.378H20.4192V24.64H21.7332V21.436H22.6332V24.64H24.8112V25.378H22.6332V32.218C22.6572 32.566 22.7832 32.83 23.0112 33.01C23.2392 33.178 23.5032 33.262 23.8032 33.262C24.1752 33.262 24.4992 33.202 24.7752 33.082C25.0512 32.95 25.2132 32.866 25.2612 32.83L25.5312 33.55ZM27.1208 34V24.64H28.0208V34H27.1208ZM27.1208 22.516V20.86H28.0208V22.516H27.1208ZM37.6154 34L33.9614 28.996L31.7474 31.03V34H30.8474V20.86H31.7474V30.022L37.4534 24.658H38.4794L34.5734 28.456L38.6054 34H37.6154ZM43.1317 34L39.2257 24.64H40.1797L43.6177 33.046L47.0737 24.64H47.9737L44.0677 34H43.1317ZM48.7589 31.3C48.7589 30.736 48.9269 30.25 49.2629 29.842C49.5989 29.422 50.0609 29.098 50.6489 28.87C51.2369 28.63 51.9149 28.51 52.6829 28.51C53.1629 28.51 53.6609 28.552 54.1769 28.636C54.6929 28.72 55.1549 28.834 55.5629 28.978V28.096C55.5629 27.232 55.3109 26.542 54.8069 26.026C54.3149 25.51 53.6309 25.252 52.7549 25.252C52.2869 25.252 51.8009 25.348 51.2969 25.54C50.7929 25.732 50.2769 26.008 49.7489 26.368L49.3709 25.72C49.9829 25.312 50.5709 25.006 51.1349 24.802C51.7109 24.586 52.2809 24.478 52.8449 24.478C53.9609 24.478 54.8429 24.808 55.4909 25.468C56.1389 26.128 56.4629 27.028 56.4629 28.168V32.812C56.4629 32.956 56.4929 33.064 56.5529 33.136C56.6249 33.208 56.7269 33.25 56.8589 33.262V34C56.7509 34.012 56.6609 34.018 56.5889 34.018C56.5169 34.018 56.4569 34.018 56.4089 34.018C56.1809 33.982 56.0009 33.886 55.8689 33.73C55.7489 33.574 55.6829 33.4 55.6709 33.208V32.47C55.2389 33.01 54.6809 33.43 53.9969 33.73C53.3249 34.03 52.6169 34.18 51.8729 34.18C51.2849 34.18 50.7509 34.054 50.2709 33.802C49.8029 33.55 49.4309 33.208 49.1549 32.776C48.8909 32.332 48.7589 31.84 48.7589 31.3ZM55.2029 32.074C55.3229 31.918 55.4129 31.768 55.4729 31.624C55.5329 31.48 55.5629 31.348 55.5629 31.228V29.68C55.1309 29.512 54.6809 29.386 54.2129 29.302C53.7449 29.218 53.2649 29.176 52.7729 29.176C51.8369 29.176 51.0749 29.362 50.4869 29.734C49.9109 30.106 49.6229 30.61 49.6229 31.246C49.6229 31.642 49.7249 32.008 49.9289 32.344C50.1329 32.68 50.4149 32.95 50.7749 33.154C51.1469 33.358 51.5729 33.46 52.0529 33.46C52.7249 33.46 53.3429 33.334 53.9069 33.082C54.4829 32.818 54.9149 32.482 55.2029 32.074ZM63.6289 25.45C62.7889 25.474 62.0509 25.726 61.4149 26.206C60.7909 26.674 60.3529 27.322 60.1009 28.15V34H59.2009V24.64H60.0649V26.944C60.3889 26.284 60.8209 25.75 61.3609 25.342C61.9009 24.922 62.4709 24.682 63.0709 24.622C63.1909 24.61 63.2989 24.604 63.3949 24.604C63.4909 24.604 63.5689 24.604 63.6289 24.604V25.45ZM65.3356 34V24.64H66.2356V34H65.3356ZM65.3356 22.516V20.86H66.2356V22.516H65.3356ZM67.4782 37.186C67.1062 37.186 66.7522 37.132 66.4162 37.024C66.0802 36.928 65.7802 36.76 65.5162 36.52L66.0022 35.926C66.1942 36.094 66.4162 36.208 66.6682 36.268C66.9082 36.328 67.1482 36.358 67.3882 36.358C67.6882 36.358 67.9762 36.28 68.2522 36.124C68.5282 35.968 68.7562 35.752 68.9362 35.476C69.1162 35.2 69.2062 34.888 69.2062 34.54V24.64H70.1062V34.504C70.1062 35.02 69.9742 35.482 69.7102 35.89C69.4582 36.298 69.1282 36.616 68.7202 36.844C68.3242 37.072 67.9102 37.186 67.4782 37.186ZM69.2062 22.516V20.86H70.1062V22.516H69.2062ZM72.1378 31.3C72.1378 30.736 72.3058 30.25 72.6418 29.842C72.9778 29.422 73.4398 29.098 74.0278 28.87C74.6158 28.63 75.2938 28.51 76.0618 28.51C76.5418 28.51 77.0398 28.552 77.5558 28.636C78.0718 28.72 78.5338 28.834 78.9418 28.978V28.096C78.9418 27.232 78.6898 26.542 78.1858 26.026C77.6938 25.51 77.0098 25.252 76.1338 25.252C75.6658 25.252 75.1798 25.348 74.6758 25.54C74.1718 25.732 73.6558 26.008 73.1278 26.368L72.7498 25.72C73.3618 25.312 73.9498 25.006 74.5138 24.802C75.0898 24.586 75.6598 24.478 76.2238 24.478C77.3398 24.478 78.2218 24.808 78.8698 25.468C79.5178 26.128 79.8418 27.028 79.8418 28.168V32.812C79.8418 32.956 79.8718 33.064 79.9318 33.136C80.0038 33.208 80.1058 33.25 80.2378 33.262V34C80.1298 34.012 80.0398 34.018 79.9678 34.018C79.8958 34.018 79.8358 34.018 79.7878 34.018C79.5598 33.982 79.3798 33.886 79.2478 33.73C79.1278 33.574 79.0618 33.4 79.0498 33.208V32.47C78.6178 33.01 78.0598 33.43 77.3758 33.73C76.7038 34.03 75.9958 34.18 75.2518 34.18C74.6638 34.18 74.1298 34.054 73.6498 33.802C73.1818 33.55 72.8098 33.208 72.5338 32.776C72.2698 32.332 72.1378 31.84 72.1378 31.3ZM78.5818 32.074C78.7018 31.918 78.7918 31.768 78.8518 31.624C78.9118 31.48 78.9418 31.348 78.9418 31.228V29.68C78.5098 29.512 78.0598 29.386 77.5918 29.302C77.1238 29.218 76.6438 29.176 76.1518 29.176C75.2158 29.176 74.4538 29.362 73.8658 29.734C73.2898 30.106 73.0018 30.61 73.0018 31.246C73.0018 31.642 73.1038 32.008 73.3078 32.344C73.5118 32.68 73.7938 32.95 74.1538 33.154C74.5258 33.358 74.9518 33.46 75.4318 33.46C76.1038 33.46 76.7218 33.334 77.2858 33.082C77.8618 32.818 78.2938 32.482 78.5818 32.074ZM86.6855 33.55C86.6255 33.574 86.5055 33.634 86.3255 33.73C86.1455 33.826 85.9175 33.916 85.6415 34C85.3655 34.072 85.0595 34.108 84.7235 34.108C84.3995 34.108 84.0935 34.048 83.8055 33.928C83.5295 33.796 83.3075 33.604 83.1395 33.352C82.9715 33.1 82.8875 32.794 82.8875 32.434V25.378H81.5735V24.64H82.8875V21.436H83.7875V24.64H85.9655V25.378H83.7875V32.218C83.8115 32.566 83.9375 32.83 84.1655 33.01C84.3935 33.178 84.6575 33.262 84.9575 33.262C85.3295 33.262 85.6535 33.202 85.9295 33.082C86.2055 32.95 86.3675 32.866 86.4155 32.83L86.6855 33.55Z" fill="white"/>
<path d="M80.61 54.83C77.82 54.83 75.33 54.425 73.14 53.615C70.95 52.805 69.225 51.62 67.965 50.06C66.705 48.53 66.075 46.67 66.075 44.48C66.075 43.64 66.18 42.755 66.39 41.825C66.57 40.925 66.87 39.965 67.29 38.945C67.71 37.955 68.34 37.025 69.18 36.155C70.02 35.285 70.875 34.58 71.745 34.04C72.615 33.5 73.29 33.23 73.77 33.23H73.905C74.175 33.23 74.31 33.275 74.31 33.365C74.31 33.425 74.25 33.5 74.13 33.59C74.01 33.68 73.875 33.755 73.725 33.815C73.215 34.025 72.57 34.475 71.79 35.165C71.01 35.825 70.26 36.665 69.54 37.685C68.85 38.675 68.325 39.77 67.965 40.97C67.695 41.96 67.56 42.905 67.56 43.805C67.56 45.425 67.965 46.835 68.775 48.035C69.585 49.235 70.65 50.225 71.97 51.005C73.29 51.815 74.745 52.415 76.335 52.805C77.925 53.195 79.485 53.39 81.015 53.39C81.615 53.39 82.2 53.36 82.77 53.3C83.34 53.27 83.88 53.195 84.39 53.075C87.03 52.475 89.445 51.47 91.635 50.06C93.855 48.68 95.88 47.03 97.71 45.11C99.54 43.19 101.19 41.12 102.66 38.9C104.16 36.71 105.495 34.49 106.665 32.24C107.835 29.99 108.885 27.845 109.815 25.805C110.745 23.765 111.555 21.965 112.245 20.405C113.325 18.065 114.345 15.965 115.305 14.105C116.295 12.215 117.15 10.625 117.87 9.335C118.62 8.045 119.16 7.145 119.49 6.635C118.02 6.875 116.385 7.265 114.585 7.805C112.815 8.315 111.015 8.99 109.185 9.83C107.385 10.67 105.69 11.66 104.1 12.8C102.54 13.94 101.22 15.23 100.14 16.67C99.09 18.11 98.415 19.715 98.115 21.485C98.085 21.755 98.055 21.995 98.025 22.205C98.025 22.415 98.025 22.64 98.025 22.88C98.025 24.2 98.325 25.295 98.925 26.165C99.525 27.005 100.38 27.425 101.49 27.425C101.97 27.425 102.57 27.305 103.29 27.065C104.49 26.645 105.405 26.06 106.035 25.31C106.695 24.56 107.16 23.765 107.43 22.925C107.7 22.085 107.835 21.35 107.835 20.72C107.835 19.97 107.715 19.475 107.475 19.235C107.295 19.145 107.205 19.025 107.205 18.875C107.205 18.605 107.37 18.47 107.7 18.47C107.97 18.47 108.21 18.605 108.42 18.875C108.69 19.535 108.825 20.225 108.825 20.945C108.825 21.935 108.57 22.925 108.06 23.915C107.58 24.875 106.92 25.73 106.08 26.48C105.27 27.23 104.34 27.785 103.29 28.145C102.48 28.445 101.64 28.595 100.77 28.595C99.12 28.595 97.74 28.055 96.63 26.975C95.52 25.865 94.965 24.395 94.965 22.565C94.965 22.115 95.01 21.65 95.1 21.17C95.43 19.07 96.24 17.225 97.53 15.635C98.82 14.015 100.41 12.62 102.3 11.45C104.19 10.25 106.2 9.245 108.33 8.435C110.46 7.625 112.56 6.98 114.63 6.5C116.73 5.99 118.605 5.63 120.255 5.42C120.405 5.21 120.675 4.85 121.065 4.34C121.455 3.83 121.905 3.32 122.415 2.81C122.925 2.3 123.435 1.97 123.945 1.82C124.275 1.73 124.59 1.685 124.89 1.685C125.34 1.685 125.715 1.805 126.015 2.045C126.315 2.255 126.465 2.585 126.465 3.035C126.465 3.965 126.06 4.64 125.25 5.06C124.47 5.48 123.645 5.825 122.775 6.095C122.505 6.095 122.16 6.155 121.74 6.275C121.32 6.395 121.02 6.455 120.84 6.455C119.37 8.975 118.125 11.57 117.105 14.24C116.115 16.91 115.14 19.685 114.18 22.565C113.22 25.415 112.095 28.355 110.805 31.385C109.515 34.385 107.835 37.49 105.765 40.7C104.445 42.77 102.9 44.615 101.13 46.235C99.36 47.855 97.5 49.235 95.55 50.375C93.63 51.545 91.755 52.475 89.925 53.165C88.095 53.855 86.43 54.305 84.93 54.515C84.18 54.635 83.445 54.71 82.725 54.74C82.005 54.8 81.3 54.83 80.61 54.83ZM121.65 5.33C122.88 5.12 123.705 4.865 124.125 4.565C124.545 4.235 124.755 3.935 124.755 3.665C124.755 3.515 124.695 3.395 124.575 3.305C124.485 3.185 124.395 3.125 124.305 3.125C124.125 3.035 123.87 3.125 123.54 3.395C123.24 3.665 122.91 3.995 122.55 4.385C122.22 4.745 121.92 5.06 121.65 5.33ZM116.686 38C116.356 38 115.951 37.925 115.471 37.775C115.021 37.625 114.616 37.355 114.256 36.965C113.926 36.545 113.761 35.93 113.761 35.12C113.761 34.34 113.941 33.59 114.301 32.87C114.691 32.12 115.051 31.4 115.381 30.71C115.291 30.71 115.186 30.68 115.066 30.62C114.976 30.56 114.931 30.47 114.931 30.35C114.931 30.23 114.961 30.11 115.021 29.99C115.141 29.75 115.276 29.495 115.426 29.225C115.576 28.955 115.711 28.67 115.831 28.37C116.281 27.44 116.731 26.555 117.181 25.715C117.631 24.845 118.021 24.08 118.351 23.42C118.681 22.76 119.251 22.43 120.061 22.43H122.851C122.341 22.82 121.876 23.255 121.456 23.735C121.066 24.185 120.571 25.025 119.971 26.255C119.971 26.255 119.866 26.465 119.656 26.885C119.446 27.305 119.176 27.845 118.846 28.505C118.546 29.135 118.231 29.78 117.901 30.44C117.601 31.1 117.346 31.655 117.136 32.105C116.746 32.945 116.491 33.62 116.371 34.13C116.251 34.61 116.191 35.06 116.191 35.48C116.191 36.47 116.521 36.965 117.181 36.965C117.901 36.965 118.771 36.38 119.791 35.21C120.631 34.22 121.456 33.035 122.266 31.655C123.076 30.275 123.841 28.85 124.561 27.38C125.311 25.91 125.971 24.59 126.541 23.42C126.871 22.76 127.456 22.43 128.296 22.43H130.771C130.321 22.79 129.946 23.135 129.646 23.465C129.346 23.765 129.046 24.185 128.746 24.725C128.476 25.235 128.101 25.97 127.621 26.93C127.231 27.74 126.811 28.61 126.361 29.54C125.941 30.44 125.566 31.295 125.236 32.105C124.906 32.915 124.696 33.575 124.606 34.085C124.576 34.385 124.546 34.61 124.516 34.76C124.486 34.91 124.471 35.075 124.471 35.255C124.471 35.825 124.561 36.23 124.741 36.47C124.951 36.71 125.191 36.83 125.461 36.83C126.181 36.83 126.901 36.425 127.621 35.615C128.371 34.805 129.076 33.815 129.736 32.645C130.426 31.475 131.011 30.365 131.491 29.315C131.671 28.985 131.836 28.82 131.986 28.82C132.166 28.82 132.256 28.925 132.256 29.135C132.256 29.285 132.196 29.465 132.076 29.675C131.746 30.395 131.341 31.22 130.861 32.15C130.381 33.08 129.841 33.995 129.241 34.895C128.641 35.795 127.981 36.545 127.261 37.145C126.541 37.715 125.761 38 124.921 38C124.171 38 123.556 37.73 123.076 37.19C122.596 36.62 122.356 35.825 122.356 34.805C122.356 33.995 122.506 33.125 122.806 32.195C122.296 33.095 121.711 33.995 121.051 34.895C120.391 35.795 119.686 36.545 118.936 37.145C118.186 37.715 117.436 38 116.686 38ZM141.362 38C140.552 38 139.877 37.595 139.337 36.785C139.187 36.545 139.052 36.23 138.932 35.84C138.812 35.45 138.752 35.015 138.752 34.535C138.752 34.265 138.767 33.995 138.797 33.725C138.827 33.425 138.887 33.125 138.977 32.825C138.557 33.485 138.062 34.22 137.492 35.03C136.952 35.81 136.322 36.5 135.602 37.1C134.912 37.67 134.132 37.955 133.262 37.955C132.962 37.955 132.647 37.91 132.317 37.82C131.507 37.58 130.922 37.16 130.562 36.56C130.232 35.96 130.067 35.24 130.067 34.4C130.067 33.47 130.247 32.45 130.607 31.34C130.997 30.23 131.477 29.15 132.047 28.1C132.647 27.05 133.262 26.15 133.892 25.4C134.792 24.35 135.827 23.51 136.997 22.88C138.167 22.25 139.352 21.935 140.552 21.935C141.632 21.935 142.652 22.22 143.612 22.79C144.062 21.95 144.542 21.02 145.052 20C145.562 18.95 146.072 17.915 146.582 16.895C147.092 15.875 147.542 14.945 147.932 14.105C148.322 13.235 148.622 12.575 148.832 12.125C149.282 11.075 149.702 10.415 150.092 10.145C150.512 9.845 151.007 9.695 151.577 9.695C151.907 9.695 152.267 9.74 152.657 9.83C153.077 9.89 153.482 9.905 153.872 9.875C153.692 10.055 153.317 10.58 152.747 11.45C152.207 12.29 151.562 13.37 150.812 14.69C150.062 16.01 149.252 17.465 148.382 19.055C147.542 20.615 146.702 22.205 145.862 23.825C145.052 25.415 144.287 26.93 143.567 28.37C142.877 29.78 142.322 30.995 141.902 32.015C141.782 32.255 141.602 32.75 141.362 33.5C141.152 34.22 141.047 34.85 141.047 35.39C141.047 35.78 141.137 36.125 141.317 36.425C141.497 36.695 141.797 36.83 142.217 36.83C142.787 36.83 143.357 36.545 143.927 35.975C144.527 35.375 145.097 34.655 145.637 33.815C146.177 32.945 146.657 32.105 147.077 31.295C147.497 30.455 147.812 29.795 148.022 29.315C148.172 28.985 148.352 28.82 148.562 28.82C148.742 28.82 148.832 28.955 148.832 29.225C148.832 29.255 148.832 29.315 148.832 29.405C148.832 29.465 148.802 29.54 148.742 29.63C148.472 30.26 148.097 31.04 147.617 31.97C147.167 32.9 146.627 33.83 145.997 34.76C145.367 35.69 144.662 36.47 143.882 37.1C143.102 37.7 142.262 38 141.362 38ZM133.577 36.65C133.997 36.65 134.522 36.425 135.152 35.975C135.782 35.495 136.457 34.745 137.177 33.725C138.017 32.525 138.977 31.025 140.057 29.225C141.137 27.425 142.202 25.52 143.252 23.51C142.862 23.15 142.412 22.97 141.902 22.97C141.062 22.97 140.117 23.36 139.067 24.14C138.047 24.92 137.042 25.91 136.052 27.11C135.092 28.31 134.282 29.525 133.622 30.755C133.172 31.595 132.842 32.36 132.632 33.05C132.452 33.74 132.362 34.34 132.362 34.85C132.362 36.05 132.767 36.65 133.577 36.65ZM153.069 19.73C152.619 19.73 152.244 19.58 151.944 19.28C151.674 18.95 151.539 18.56 151.539 18.11C151.539 17.54 151.764 17.045 152.214 16.625C152.664 16.205 153.159 15.995 153.699 15.995C154.179 15.995 154.569 16.145 154.869 16.445C155.169 16.745 155.319 17.105 155.319 17.525C155.319 18.095 155.094 18.605 154.644 19.055C154.194 19.505 153.669 19.73 153.069 19.73ZM149.424 38C148.314 38 147.534 37.685 147.084 37.055C146.634 36.395 146.409 35.645 146.409 34.805C146.409 34.355 146.454 33.905 146.544 33.455C146.664 32.975 146.799 32.54 146.949 32.15L149.964 24.455C150.054 24.215 150.099 24.005 150.099 23.825C150.099 23.525 150.024 23.27 149.874 23.06C149.724 22.82 149.619 22.655 149.559 22.565L152.034 22.475C152.484 22.445 152.799 22.505 152.979 22.655C153.189 22.775 153.294 22.925 153.294 23.105C153.294 23.285 153.189 23.615 152.979 24.095L149.244 32.87C149.244 32.87 149.154 33.065 148.974 33.455C148.824 33.815 148.734 34.055 148.704 34.175C148.614 34.625 148.554 34.91 148.524 35.03C148.494 35.15 148.479 35.225 148.479 35.255C148.479 35.285 148.479 35.405 148.479 35.615C148.479 36.005 148.569 36.335 148.749 36.605C148.959 36.875 149.304 37.01 149.784 37.01C150.084 37.01 150.429 36.92 150.819 36.74C151.209 36.56 151.494 36.38 151.674 36.2C152.424 35.42 153.159 34.4 153.879 33.14C154.629 31.85 155.319 30.575 155.949 29.315C156.069 29.015 156.219 28.865 156.399 28.865C156.549 28.865 156.624 28.97 156.624 29.18C156.624 29.3 156.579 29.48 156.489 29.72C156.189 30.35 155.814 31.13 155.364 32.06C154.914 32.99 154.374 33.92 153.744 34.85C153.144 35.75 152.484 36.5 151.764 37.1C151.044 37.7 150.264 38 149.424 38ZM158.144 38C157.304 38 156.554 37.715 155.894 37.145C155.234 36.545 154.904 35.615 154.904 34.355C154.904 33.365 155.084 32.15 155.444 30.71C155.834 29.24 156.299 27.725 156.839 26.165C157.409 24.575 157.964 23.135 158.504 21.845H156.119C155.909 21.845 155.804 21.695 155.804 21.395C155.804 21.245 155.834 21.11 155.894 20.99C155.984 20.87 156.104 20.81 156.254 20.81H158.954C159.464 19.67 160.004 18.56 160.574 17.48C161.144 16.4 161.699 15.38 162.239 14.42C162.929 13.22 163.664 12.32 164.444 11.72C165.224 11.12 165.899 10.82 166.469 10.82C166.919 10.82 167.294 11 167.594 11.36C167.894 11.69 168.044 12.2 168.044 12.89C168.044 13.31 167.954 13.895 167.774 14.645C167.594 15.365 167.309 16.13 166.919 16.94C166.709 17.36 166.409 17.96 166.019 18.74C165.659 19.52 165.299 20.21 164.939 20.81H167.099C167.309 20.81 167.414 20.96 167.414 21.26C167.414 21.38 167.384 21.515 167.324 21.665C167.264 21.785 167.174 21.845 167.054 21.845H164.399C163.649 23.135 162.794 24.395 161.834 25.625C160.874 26.855 159.734 28.085 158.414 29.315C158.324 29.585 158.204 29.975 158.054 30.485C157.934 30.995 157.814 31.52 157.694 32.06C157.604 32.57 157.514 33.005 157.424 33.365C157.364 33.725 157.334 33.905 157.334 33.905C157.244 34.295 157.199 34.655 157.199 34.985C157.199 35.615 157.349 36.08 157.649 36.38C157.949 36.65 158.294 36.785 158.684 36.785C158.924 36.785 159.164 36.755 159.404 36.695C159.644 36.605 159.914 36.455 160.214 36.245C161.264 35.495 162.179 34.475 162.959 33.185C163.769 31.895 164.474 30.65 165.074 29.45C165.254 29.09 165.434 28.91 165.614 28.91C165.734 28.91 165.794 29 165.794 29.18C165.794 29.27 165.749 29.435 165.659 29.675C164.999 31.055 164.444 32.165 163.994 33.005C163.544 33.845 163.109 34.55 162.689 35.12C162.269 35.66 161.774 36.2 161.204 36.74C160.784 37.16 160.304 37.475 159.764 37.685C159.224 37.895 158.684 38 158.144 38ZM161.699 20.81H163.994C164.414 20.03 164.804 19.265 165.164 18.515C165.554 17.765 165.899 17.015 166.199 16.265C166.409 15.785 166.589 15.245 166.739 14.645C166.889 14.045 166.964 13.58 166.964 13.25C166.964 12.8 166.859 12.575 166.649 12.575C166.499 12.575 166.274 12.71 165.974 12.98C165.704 13.22 165.359 13.64 164.939 14.24C164.399 14.99 163.859 15.965 163.319 17.165C162.809 18.335 162.269 19.55 161.699 20.81ZM158.774 27.875C159.644 26.975 160.454 26.015 161.204 24.995C161.984 23.975 162.704 22.925 163.364 21.845H161.249C160.769 22.955 160.319 24.035 159.899 25.085C159.479 26.135 159.104 27.065 158.774 27.875ZM174.712 38.135C174.382 38.165 174.007 38.09 173.587 37.91C173.167 37.73 172.792 37.4 172.462 36.92C172.162 36.44 172.012 35.765 172.012 34.895C172.012 34.175 172.147 33.305 172.417 32.285C172.057 32.855 171.592 33.56 171.022 34.4C170.452 35.21 169.837 35.93 169.177 36.56C168.607 37.1 168.067 37.49 167.557 37.73C167.047 37.97 166.582 38.09 166.162 38.09C165.382 38.09 164.752 37.745 164.272 37.055C163.792 36.335 163.552 35.405 163.552 34.265C163.552 33.065 163.852 31.7 164.452 30.17C165.052 28.64 166.027 27.05 167.377 25.4C168.247 24.35 169.297 23.51 170.527 22.88C171.787 22.22 173.017 21.89 174.217 21.89C174.907 21.89 175.567 22.01 176.197 22.25C176.827 22.46 177.382 22.82 177.862 23.33C178.072 23.54 178.177 23.78 178.177 24.05C178.177 24.23 178.102 24.38 177.952 24.5C177.802 24.62 177.607 24.65 177.367 24.59C177.037 23.54 176.332 23.015 175.252 23.015C174.742 23.015 174.157 23.18 173.497 23.51C172.477 24.05 171.412 24.935 170.302 26.165C169.222 27.395 168.277 28.67 167.467 29.99C167.347 30.17 167.152 30.515 166.882 31.025C166.642 31.535 166.402 32.105 166.162 32.735C165.922 33.365 165.757 33.98 165.667 34.58C165.637 34.76 165.622 34.895 165.622 34.985C165.622 35.045 165.622 35.15 165.622 35.3C165.622 36.29 165.997 36.785 166.747 36.785C167.647 36.785 168.667 36.125 169.807 34.805C170.587 33.845 171.292 32.84 171.922 31.79C172.552 30.74 173.197 29.615 173.857 28.415C174.307 27.605 174.727 26.93 175.117 26.39C175.507 25.85 176.062 25.58 176.782 25.58C177.112 25.58 177.442 25.625 177.772 25.715C178.102 25.805 178.447 25.82 178.807 25.76C178.567 26 178.237 26.45 177.817 27.11C177.427 27.77 177.007 28.52 176.557 29.36C176.107 30.2 175.702 31.055 175.342 31.925C174.982 32.795 174.727 33.545 174.577 34.175C174.547 34.355 174.502 34.61 174.442 34.94C174.412 35.27 174.397 35.51 174.397 35.66C174.397 36.5 174.637 36.92 175.117 36.92C175.597 36.92 176.107 36.635 176.647 36.065C177.217 35.495 177.772 34.79 178.312 33.95C178.852 33.11 179.347 32.27 179.797 31.43C180.247 30.56 180.607 29.855 180.877 29.315C180.997 29.015 181.177 28.865 181.417 28.865C181.567 28.865 181.642 28.97 181.642 29.18C181.642 29.27 181.597 29.435 181.507 29.675C181.147 30.425 180.712 31.28 180.202 32.24C179.692 33.17 179.137 34.085 178.537 34.985C177.937 35.855 177.307 36.59 176.647 37.19C176.017 37.76 175.372 38.075 174.712 38.135Z" fill="#FFBE14"/>
</svg>
